<svg width="110" height="91" viewBox="0 0 110 91" fill="none" xmlns="http://www.w3.org/2000/svg">
<path d="M11.6504 0.674424C11.4536 0.67042 11.2532 0.718468 11.0581 0.836083C10.8452 0.963874 10.5607 1.21162 10.2357 1.54511C9.63212 2.00789 8.72648 2.80984 8.13865 3.40626C7.50734 4.04672 6.69171 4.83866 6.3213 5.16898C5.95071 5.49931 5.48563 6.05985 5.29237 6.4152C5.09911 6.76888 4.82479 7.10254 4.68271 7.14925C4.43559 7.231 4.1856 7.76152 3.90556 8.80754C3.79676 9.21293 3.69422 9.28133 3.27371 9.22461C2.77195 9.15788 2.77052 9.15454 2.68087 10.4074C2.60106 11.5219 2.53878 11.6987 2.12721 11.9356C1.8443 12.0991 1.6591 12.366 1.65194 12.6229C1.6455 12.8565 1.45474 13.402 1.22695 13.8391C0.876397 14.5081 0.782452 15.0737 0.634286 17.4977C0.515647 19.4396 0.369986 20.534 0.181201 20.8927C-0.0287005 21.2897 -0.0505313 21.54 0.0861817 21.9037C0.185853 22.1689 0.243474 22.7895 0.214843 23.28C0.14917 24.4028 0.418301 25.6039 0.986448 26.72C1.22981 27.1988 1.42146 27.8828 1.41699 28.2382C1.40876 28.9122 1.51057 29.1975 2.40118 31.0743C2.70073 31.7049 3.05844 32.791 3.19533 33.4883C3.33222 34.184 3.5364 34.9281 3.64824 35.1349C3.76025 35.3435 3.9043 35.9824 3.96694 36.558C4.10329 37.8125 4.56962 39.7962 4.789 40.0564C4.93914 40.2349 5.22527 41.2709 5.40421 42.2669C5.45253 42.5355 5.3491 42.9743 5.15816 43.2996C4.08432 45.1264 3.51635 47.3068 3.2848 50.4883C3.16169 52.1816 3.27263 52.6354 3.90556 53.1325C4.26595 53.4145 4.26327 53.4178 3.85527 54.1168C3.37803 54.9359 3.42831 55.1762 4.16843 55.6083C4.53097 55.8201 4.7074 56.0654 4.69953 56.344C4.69309 56.5725 4.8443 57.1631 5.03505 57.6519C5.2258 58.1407 5.37683 58.7146 5.37057 58.9349C5.36449 59.1551 5.59783 59.6856 5.89058 60.1127C6.44781 60.9235 6.55858 61.6342 6.18154 61.9695C6.01155 62.1196 6.0765 62.2748 6.44423 62.6368C6.70943 62.8971 7.00773 63.4359 7.10972 63.8296C7.21172 64.2234 7.46618 64.7822 7.67447 65.0708C8.05974 65.6047 8.17211 66.227 8.41834 69.1682C8.49636 70.1024 8.79609 71.5789 9.10602 72.5682C9.49916 73.8211 9.64088 74.6068 9.60366 75.7379C9.60366 75.7396 9.60384 75.7413 9.60366 75.7429C9.59132 75.8297 9.57396 75.9031 9.55893 75.9515C9.31342 76.7272 9.06755 77.5581 9.22359 77.9785C9.35171 78.3255 10.5249 79.9671 10.9561 80.5643C11.0223 80.6811 11.0885 80.8046 11.1422 80.9046C11.0975 81.0515 10.9508 81.607 11.187 81.8839C11.4572 82.2043 12.8315 82.965 12.937 83.2286C12.9782 83.3337 13.1536 83.4405 13.3558 83.5573C13.6242 83.8158 13.9051 84.0744 14.1896 84.3297C14.3221 84.73 14.4312 85.2072 14.7819 85.309C14.9645 85.3623 15.5693 85.6376 16.2081 85.9663C16.7253 86.3216 17.4661 86.8021 18.2266 87.2792C18.6507 87.6546 19.1965 88.05 19.6474 88.1717C19.8228 88.2835 19.9874 88.3903 20.161 88.5054C20.1628 88.5071 20.1664 88.5087 20.1664 88.5104C20.1878 88.5338 20.2093 88.5571 20.229 88.5721C20.3739 88.6839 20.5457 88.784 20.7211 88.8808C21.376 89.3245 21.9522 89.7333 22.2528 89.9852L23.0688 90.6742H29.1368C29.1619 90.6608 29.1708 90.6575 29.1976 90.6425C29.2012 90.6408 29.2048 90.6442 29.2084 90.6425C29.5019 90.5691 29.6772 90.464 29.858 90.2988C29.9134 90.2471 29.9617 90.1937 30.0083 90.142C30.1818 90.0152 30.3143 89.8918 30.316 89.8083C30.3178 89.7716 30.325 89.7183 30.3339 89.6565C30.4216 89.4497 30.452 89.2361 30.418 89.0209C30.4503 88.719 30.4574 88.4337 30.3554 88.3486C30.0959 88.1334 29.4714 87.6763 29.4714 87.6763C29.4714 87.6763 29.1028 87.2208 28.8237 87.1491C28.7234 87.1241 28.4497 87.1241 28.1132 87.1174C27.852 87.0273 27.6104 86.9672 27.4189 86.9622C26.628 86.9422 26.2469 86.8288 24.9477 85.6643L24.9531 85.6109C24.9531 85.6109 24.5541 85.032 23.9474 84.7301C23.6128 84.4131 23.2424 84.0544 22.8129 83.6407C21.9182 82.7815 21.8234 82.5996 21.0235 80.2156C20.9734 80.0688 21.2078 79.6167 21.5424 79.2097L22.1473 78.4689L23.2478 78.6041C23.8544 78.6791 24.5004 78.8209 24.6918 78.9227C24.8815 79.0245 25.3718 79.1162 25.7816 79.1262C26.1914 79.1363 26.5761 79.2163 26.6316 79.3031C26.6853 79.3915 26.8946 79.4215 27.1004 79.3765C27.3993 79.3114 27.4744 79.3815 27.4655 79.7202C27.4512 80.194 28.6787 81.6237 29.1082 81.6337C29.2549 81.637 29.5734 81.5119 29.824 81.3568C30.1675 81.1449 30.3017 81.1332 30.3554 81.3C30.3948 81.4218 30.7222 81.7705 31.0819 82.0825C31.4434 82.3928 31.9749 82.8732 32.263 83.1452L32.7819 83.6357L33.2471 83.1919C33.6856 82.7731 33.7339 82.7648 34.1132 83.0367C34.3351 83.1936 34.6841 83.4388 34.8845 83.5789C35.0849 83.7191 35.7899 83.9376 36.4502 84.0627C37.1123 84.1895 37.9068 84.3747 38.2182 84.4698C38.5296 84.5649 39.0234 84.645 39.3133 84.6516C39.605 84.66 39.9844 84.7951 40.158 84.9486C40.4461 85.2038 40.5266 85.2055 41.0706 84.9603C41.611 84.715 41.704 84.715 42.0995 84.9703C42.3375 85.1238 43.3181 85.379 44.279 85.5392C45.2417 85.6977 46.1937 85.9145 46.3995 86.023C46.6035 86.1314 47.024 86.2248 47.3336 86.2315C47.6414 86.2399 48.1102 86.3433 48.3679 86.4617C48.7347 86.6286 48.9352 86.6302 49.3074 86.4567C49.7225 86.2615 49.8764 86.2782 50.5546 86.6019C51.2757 86.9472 51.5048 86.9672 53.9366 86.8788C55.37 86.8271 57.4618 86.8521 58.5892 86.9355C60.2659 87.0607 60.7794 87.0423 61.3861 86.8204C62.9751 86.5518 65.5966 86.687 67.9229 86.6169C67.9336 86.6186 67.9461 86.6169 67.9569 86.6169C68.4919 86.6453 68.9858 86.6886 69.3938 86.7487C71.5662 87.0623 78.9172 88.2301 79.3073 88.2385C79.6992 88.2485 81.6998 88.7156 83.7594 89.0793C85.819 89.4413 97.3198 90.1403 98.2145 90.1637C99.1092 90.1854 100.441 90.6325 100.441 90.6325L102.146 90.6742H103.057L105.311 90.5441C105.311 90.5441 105.707 90.3472 105.88 90.142C106.054 89.9368 106.177 89.4697 106.177 89.4697C106.177 89.4697 107.421 89.0826 107.715 88.5671C107.8 88.4187 107.818 88.1968 107.788 87.9365L109.638 87.8331C109.638 87.8331 110.125 86.3867 109.969 85.9663C109.814 85.5458 108.761 85.1538 108.096 84.9803C107.428 84.8085 104.571 84.9486 103.354 84.4481C102.137 83.9493 98.8658 82.9283 98.1411 82.8065C97.4182 82.6847 92.3433 80.1606 92.0695 79.9971C91.794 79.8336 85.479 77.5948 84.1513 77.0926C82.8217 76.5904 80.9911 76.1817 80.5438 76.17C80.0964 76.1583 78.4322 75.5478 78.3356 75.0222C78.273 74.6852 78.511 73.3323 78.6935 72.4013C78.6989 72.383 78.7382 72.358 78.749 72.3596C79.2518 72.3713 80.8909 71.694 81.4546 71.4988C82.0201 71.3036 82.6213 69.7538 82.5802 69.2833C82.5372 68.8128 82.3422 67.9253 82.6857 67.62C83.0293 67.3147 82.8289 66.4772 82.6696 66.212C82.5086 65.9484 80.4632 65.0642 79.9121 64.7889C79.361 64.5153 78.6291 62.6168 78.3624 62.1413C78.103 61.6759 74.304 60.0293 73.089 59.7323L73.8173 56.4057C73.8388 56.3056 73.8012 56.2289 73.7153 56.2389C73.5775 56.2572 72.842 56.8295 71.6181 57.762L71.7755 54.9259C71.7845 54.7624 71.7075 54.6824 71.5465 54.7057C71.2441 54.7508 69.8107 55.9353 69.2202 57.068C68.6279 58.2008 68.3219 59.0783 67.1337 59.5705C66.01 60.0359 65.4069 59.9091 64.7234 60.0559C64.4532 60.0643 64.1847 60.081 63.9306 60.1177C62.6941 60.2962 60.2891 62.3799 60.2891 62.3799C60.2891 62.3799 59.8364 62.6251 58.9811 63.1773C58.4943 63.4926 58.0971 64.4586 57.528 65.5079L56.152 65.4929C55.9336 64.859 55.7279 63.9965 55.1624 63.6111C54.4484 63.1239 50.4991 62.2965 49.4523 61.6976C48.4055 61.0986 42.6793 57.9339 41.5949 56.7077C40.5105 55.4831 38.041 49.7859 31.4684 44.7743C24.8958 39.7645 15.5711 39.279 14.5296 38.5232C13.4882 37.7675 12.096 35.3868 11.8401 34.546C11.5842 33.7052 8.16728 23.9757 7.87578 22.4042C7.58428 20.8326 7.03833 16.4867 8.11628 13.9576C9.19424 11.4284 10.8577 9.90528 11.3659 9.7618C11.8723 9.61666 14.9484 7.70813 15.1345 7.03414C15.3206 6.36181 14.8428 3.43145 14.2451 2.79099C13.7405 2.25063 12.7133 0.695779 11.6504 0.674424Z" fill="#170000"/>
</svg>
