<svg width="109" height="87" viewBox="0 0 109 87" fill="none" xmlns="http://www.w3.org/2000/svg">
<path d="M0.410673 17.5932C1.012 20.9266 2.81597 21.4144 5.72236 22.6746C8.67887 23.9348 15.2934 22.9185 16.3457 23.7722C16.9602 24.2707 18.4975 26.9594 19.8099 29.329C20.9876 31.4551 23.5014 32.3281 25.7077 31.3084C31.0496 28.8394 34.7897 26.5572 37.4103 24.5835C39.5517 22.9707 39.5278 19.8901 37.8306 17.8149C36.8529 16.6195 36.0783 15.6345 35.6382 15.2354C34.0848 13.6093 32.1305 12.1459 29.7252 10.2353C29.174 9.78812 25.566 6.90188 24.2131 5.8043C23.8623 5.51974 23.3612 4.99127 22.9102 4.3815C21.1062 2.06438 16.5462 -3.09833 16.1954 2.55219C16.0451 4.70671 15.7444 6.49537 15.3435 7.79621C15.2433 8.08077 14.9928 8.32468 14.6921 8.44663C12.2367 9.46291 9.83141 12.6744 9.43052 13.1622C9.02964 13.65 3.71795 13.9752 1.66343 14.3817C-0.391092 14.7882 -0.190651 14.1785 0.410673 17.5932Z" fill="#FFF5F5"/>
<path d="M25.3824 41.9613C24.9778 39.3713 25.8316 36.6466 28.1254 35.3776C34.2728 31.9765 38.2329 28.8218 40.7713 26.1379C41.4693 25.4 42.5949 25.3814 43.5978 25.5425C47.0252 26.1355 54.8907 30.6675 67.5458 30.5828C80.2009 30.5404 82.9252 29.8204 84.2435 30.0322C85.5617 30.244 85.342 29.9475 85.6496 28.6768C85.9132 27.4062 85.9132 19.6975 83.5843 13.7678C81.2555 7.83803 75.4113 1.18826 77.081 0.129377C78.7508 -0.929504 83.4525 4.70374 87.4072 9.99815C91.3619 15.2926 93.559 24.8225 93.1196 28.1262C92.6802 31.4299 92.4605 39.9857 94.3499 41.1716C96.2834 42.3576 98.7001 44.8989 98.832 46.3813C98.9638 47.8637 99.2714 57.7749 100.062 59.3844C100.897 60.9939 101.337 64.3823 102.787 64.3823C104.237 64.3823 104.588 67.093 104.896 69.1261C105.203 71.1591 107.269 76.4959 108.279 79.1219C109.29 81.7479 109.07 85.7717 108.631 85.7717C108.191 85.7717 105.599 86.3223 104.325 86.5341C103.05 86.7459 100.194 86.5341 100.282 85.3481C100.37 84.1622 102.567 82.3409 103.006 81.8327C103.446 81.3668 103.006 76.1994 102.567 75.2252C102.128 74.2511 100.677 71.4133 97.9531 70.0155C95.2288 68.6178 86.3966 61.968 84.7708 59.935C83.1889 57.9019 82.7934 53.3276 75.4113 54.5135C68.0291 55.6995 57.4832 58.749 53.924 58.6643C50.3647 58.622 45.8827 60.0197 44.4327 59.8079C42.9826 59.5961 42.4114 59.8079 42.1038 62.8575C41.8401 65.8647 40.7416 79.6302 40.2143 80.7738C39.731 81.9174 38.8521 87 38.1051 87C37.3581 87 29.976 86.9153 30.6351 86.0682C31.2942 85.2211 31.0306 83.1457 32.4807 82.5951C33.9307 82.0021 34.3701 81.6632 34.3701 80.8161C34.3701 79.969 33.4034 63.4505 33.2716 61.4174C33.1398 59.342 32.4807 55.4877 31.0745 53.9205C29.6684 52.3534 28.2184 50.5321 26.9001 48.4144C25.5819 46.2966 25.2304 45.4495 25.4501 43.0352C25.4709 42.7241 25.4448 42.3607 25.3824 41.9613Z" fill="#FFF5F5"/>
</svg>
